<svg xmlns="http://www.w3.org/2000/svg" viewBox="0 0 100 100" fill="none">
 <path d="M50 8c-23.2 0-42 18.7-42 41.7S26.8 92 50 92s42-19.3 42-42.3S73.2 8 50 8Z" stroke="#142b56" stroke-width="3" stroke-linecap="round"/>
 <path d="M50 9c-12 10-19 24-19 41s7 31 19 41M51 9c12 10 19 24 19 41s-7 31-19 41M9 42c12 5 26 7 41 7s29-2 41-7M10 59c12-5 26-7 40-7s28 2 40 7" stroke="#142b56" stroke-width="2" stroke-linecap="round"/>
 <path d="M19 28c8 1 12 6 12 12-7 1-12-3-12-12Z" fill="#f44891" stroke="#142b56" stroke-width="1.6" stroke-linejoin="round"/>
 <path d="M72 63c1-9 7-14 16-13 0 9-6 14-16 13Z" fill="#f5c86e" stroke="#142b56" stroke-width="1.6" stroke-linejoin="round"/>
 <path d="m74 20 2-6 2 6 6 2-6 2-2 6-2-6-6-2 6-2Z" fill="#f44891"/>
 <path d="M26 74c12-7 22-10 34-10" stroke="#f44891" stroke-width="3" stroke-linecap="round" stroke-dasharray="1 6"/>
</svg>
